:SAMPLES-PER-SECOND 30
:FRAME-RANGE 1-2009
:FULLY-SPECIFIED
:DEGREES
1068
root  -31.7769 39.1119 -36.4505 -179.697 33.0236 179.548
RightUpLeg  -14.561 -13.0304 2.07011
RightLeg  20.9865 -24.344 -4.40784
RightFoot  -8.86342 -0.0148194 -2.08736
RightToes  4.71047e-010 1.2921e-014 -6.02303e-014
Spine  9.75512 0.154684 8.31789
Spine1  -2.1847 1.70553 -3.44519
HEad  -2.81128 63.8613 -15.1153
LeftShoulder1  0.947599 0.324478 -23.5225
LeftArm  -35.7418 -38.0047 -3.16516
LeftForeArm  29.0111 -12.5824 -9.45769
LeftHand  -0.167683 0.428551 3.91103
RightShoulder  7.74851 10.309 49.1406
RightArm  30.933 -3.64754 16.0456
RightForeArm  1.79753 16.4502 10.1877
RightHand  0.286109 -0.546207 6.97757
LeftUpLeg  -8.99569 10.9935 13.6998
LeftLeg  35.0835 3.35867 2.88288
LeftFoot  2.93108 1.91453 -15.3584
LeftToes  2.15783e-011 -7.56106e-012 -8.20802e-012
1069
root  -31.2194 39.1029 -36.5802 -179.844 33.7743 179.547
RightUpLeg  -13.5572 -10.1781 2.12567
RightLeg  21.1072 -26.467 -4.43973
RightFoot  -9.67478 -0.0369799 -1.95756
RightToes  4.71047e-010 1.2921e-014 -6.02303e-014
Spine  10.12 0.0959347 9.65365
Spine1  -2.22786 1.80717 -3.25417
HEad  -3.30286 64.9374 -14.4921
LeftShoulder1  0.788143 0.822875 -23.0877
LeftArm  -33.8918 -38.2086 -5.25009
LeftForeArm  28.6298 -12.4668 -9.68236
LeftHand  -0.202262 -0.0693596 4.34665
RightShoulder  7.87188 10.6092 48.8587
RightArm  30.7123 -3.7827 15.8379
RightForeArm  1.65396 16.1633 10.4584
RightHand  0.276589 -0.721917 7.03099
LeftUpLeg  -11.9657 8.63177 13.6358
LeftLeg  40.4729 3.37379 3.44965
LeftFoot  3.96144 1.71114 -12.8739
LeftToes  2.15783e-011 -7.56106e-012 -8.20802e-012
1070
root  -30.6492 39.1498 -36.739 179.716 35.1502 178.782
RightUpLeg  -12.4857 -8.61123 1.93745
RightLeg  20.3794 -26.6329 -3.96383
RightFoot  -10.3686 -0.0565365 -1.60409
RightToes  4.71047e-010 1.2921e-014 -6.02303e-014
Spine  10.1262 0.526678 10.1934
Spine1  -2.10417 2.36507 -3.50222
HEad  -4.34316 65.4968 -14.8973
LeftShoulder1  0.938584 0.417435 -24.1574
LeftArm  -30.2152 -37.6272 -5.80551
LeftForeArm  26.6771 -12.7727 -9.91147
LeftHand  -0.177154 -0.172472 3.74824
RightShoulder  7.90054 10.6925 48.7478
RightArm  30.1229 -3.5328 15.4324
RightForeArm  4.01908 14.9364 11.4068
RightHand  0.275326 -0.541217 6.71514
LeftUpLeg  -14.6132 7.72416 12.7217
LeftLeg  44.8316 1.60574 2.10175
LeftFoot  2.37887 1.35265 -11.3358
LeftToes  2.15783e-011 -7.56106e-012 -8.20802e-012
1071
root  -30.0817 39.2094 -36.8994 179.515 36.1607 178.293
RightUpLeg  -11.3415 -7.79041 1.95746
RightLeg  19.4166 -26.4011 -3.28616
RightFoot  -10.8621 -0.0681653 -1.27597
RightToes  4.71047e-010 1.2921e-014 -6.02303e-014
Spine  10.0768 0.652616 10.9469
Spine1  -2.10421 2.59733 -3.87495
HEad  -4.41052 65.4808 -14.6131
LeftShoulder1  0.930671 0.461334 -24.3441
LeftArm  -25.6853 -36.3847 -8.08237
LeftForeArm  25.2649 -12.7901 -10.2822
LeftHand  -0.15547 -0.493639 3.1438
RightShoulder  8.02223 10.9102 48.7497
RightArm  26.8337 -3.1032 15.0881
RightForeArm  7.653 12.5598 12.9525
RightHand  0.276128 -0.390167 6.50366
LeftUpLeg  -17.4442 6.33057 11.7011
LeftLeg  48.0714 0.197045 0.648174
LeftFoot  0.640692 1.12154 -10.7016
LeftToes  2.15783e-011 -7.56106e-012 -8.20802e-012
1072
root  -29.5126 39.2752 -37.0596 179.255 37.5249 177.63
RightUpLeg  -10.0902 -7.81301 1.98386
RightLeg  17.9376 -24.9452 -2.23964
RightFoot  -11.3099 -0.0761202 -1.44565
RightToes  4.71047e-010 1.2921e-014 -6.02303e-014
Spine  10.0604 0.848883 11.5356
Spine1  -2.26929 2.90767 -4.68078
HEad  -4.50179 65.4266 -14.4789
LeftShoulder1  0.974071 0.366327 -24.8234
LeftArm  -19.558 -34.3934 -10.0541
LeftForeArm  22.9426 -12.7365 -10.8318
LeftHand  -0.121425 -0.689492 2.40679
RightShoulder  8.1978 11.2382 48.7061
RightArm  22.0818 -2.88513 14.9491
RightForeArm  11.7947 9.69196 14.3266
RightHand  0.268249 -0.601133 6.63133
LeftUpLeg  -19.9508 5.28564 10.3346
LeftLeg  49.7736 -0.107908 0.289053
LeftFoot  -0.89989 0.971752 -10.555
LeftToes  2.15783e-011 -7.56106e-012 -8.20802e-012
1073
root  -28.9344 39.3331 -37.2232 178.651 38.9592 176.662
RightUpLeg  -8.6617 -7.90197 1.75959
RightLeg  16.3136 -23.4756 -1.24317
RightFoot  -11.7636 -0.0855571 -1.62426
RightToes  4.71047e-010 1.2921e-014 -6.02303e-014
Spine  10.342 1.04691 11.3249
Spine1  -2.6088 3.0782 -5.1132
HEad  -4.91892 65.4839 -15.0032
LeftShoulder1  0.960092 0.44965 -25.2286
LeftArm  -11.3321 -31.6163 -12.4341
LeftForeArm  20.2159 -12.9497 -11.332
LeftHand  -0.0927964 -0.948965 1.8051
RightShoulder  8.19795 11.2999 48.5023
RightArm  20.2002 -2.84966 14.8469
RightForeArm  13.2772 8.46468 14.8099
RightHand  0.273527 -0.574509 6.71832
LeftUpLeg  -21.9234 4.3932 8.59147
LeftLeg  49.8861 -0.202056 0.170125
LeftFoot  -2.06839 0.831566 -10.0827
LeftToes  2.15783e-011 -7.56106e-012 -8.20802e-012
1074
root  -28.3462 39.4195 -37.4047 177.817 40.4669 175.57
RightUpLeg  -7.0255 -8.06163 1.37737
RightLeg  14.7951 -21.7648 -0.302534
RightFoot  -12.1095 -0.0935769 -1.74153
RightToes  4.71047e-010 1.2921e-014 -6.02303e-014
Spine  10.3708 1.1349 10.8308
Spine1  -2.39359 3.1254 -5.54477
HEad  -6.30752 65.6997 -16.4305
LeftShoulder1  0.93126 0.579278 -25.6512
LeftArm  -3.8567 -27.9386 -14.4174
LeftForeArm  19.477 -12.5896 -12.0335
LeftHand  -0.060489 -1.22246 1.18514
RightShoulder  8.19368 11.33 48.3775
RightArm  19.7108 -2.78256 14.8164
RightForeArm  13.2178 8.1661 14.938
RightHand  0.26987 -0.712019 6.55765
LeftUpLeg  -23.1453 3.39189 6.63074
LeftLeg  48.1508 -0.125494 0.264586
LeftFoot  -2.93472 0.806109 -10.7067
LeftToes  2.15783e-011 -7.56106e-012 -8.20802e-012
1075
root  -27.766 39.4562 -37.5849 177.409 41.9794 174.881
RightUpLeg  -5.71701 -7.86009 1.42751
RightLeg  13.5279 -20.623 0.231895
RightFoot  -12.5962 -0.102534 -1.58328
RightToes  4.71047e-010 1.2921e-014 -6.02303e-014
Spine  10.0864 1.27709 10.6257
Spine1  -2.02059 3.21407 -5.98169
HEad  -7.6729 66.1995 -17.6406
LeftShoulder1  1.00028 0.434101 -26.4235
LeftArm  1.96026 -23.7022 -15.3612
LeftForeArm  19.8553 -11.3364 -13.1928
LeftHand  -0.0370229 -1.41922 0.766538
RightShoulder  8.0426 11.0368 48.4453
RightArm  20.194 -2.63175 14.6322
RightForeArm  12.9859 8.47583 14.8334
RightHand  0.265572 -0.638721 6.36865
LeftUpLeg  -24.5182 2.85809 4.95682
LeftLeg  45.601 -1.09473 -0.800401
LeftFoot  -3.43003 0.697797 -9.77751
LeftToes  2.15783e-011 -7.56106e-012 -8.20802e-012
1076
root  -27.176 39.5297 -37.7824 177.053 43.6269 174.31
RightUpLeg  -4.34446 -7.56756 1.45379
RightLeg  12.3065 -18.8968 0.811646
RightFoot  -12.7516 -0.106829 -1.67277
RightToes  4.71047e-010 1.2921e-014 -6.02303e-014
Spine  10.0053 1.41546 10.4385
Spine1  -1.95049 3.32793 -6.54007
HEad  -8.31011 66.6448 -17.9162
LeftShoulder1  1.02899 0.409476 -27.1149
LeftArm  7.70014 -18.9145 -15.4708
LeftForeArm  18.9379 -9.86361 -14.4937
LeftHand  -0.0119258 -1.20013 0.326746
RightShoulder  7.84459 10.7157 48.3208
RightArm  21.8265 -3.03876 14.7645
RightForeArm  10.9668 9.64598 14.3907
RightHand  0.268481 -0.700256 6.67023
LeftUpLeg  -25.2601 3.30023 3.23783
LeftLeg  41.5521 -2.49399 -1.99322
LeftFoot  -3.56272 0.703847 -10.0209
LeftToes  2.15783e-011 -7.56106e-012 -8.20802e-012
1077
root  -26.5831 39.5786 -37.966 177.272 46.0298 174.135
RightUpLeg  -3.12665 -6.64339 2.06275
RightLeg  10.6053 -17.4149 1.2532
RightFoot  -12.7505 -0.105941 -1.60232
RightToes  4.71047e-010 1.2921e-014 -6.02303e-014
Spine  9.75542 1.86488 10.293
Spine1  -1.85756 3.76471 -7.1463
HEad  -9.54619 66.9824 -18.5131
LeftShoulder1  0.972996 0.587748 -27.2288
LeftArm  12.0898 -13.3288 -15.2285
LeftForeArm  19.3704 -8.37306 -15.5368
LeftHand  -0.00861825 -1.16989 0.266483
RightShoulder  7.64852 10.431 48.0746
RightArm  23.5424 -3.36941 14.9044
RightForeArm  9.59292 10.4836 14.0669
RightHand  0.265875 -0.702584 6.73212
LeftUpLeg  -26.112 4.07013 1.82426
LeftLeg  36.8788 -3.82634 -2.72331
LeftFoot  -3.54494 0.727833 -10.3494
LeftToes  2.15783e-011 -7.56106e-012 -8.20802e-012
1078
root  -25.9792 39.6264 -38.176 177.142 48.1078 173.842
RightUpLeg  -1.45426 -6.10489 2.33736
RightLeg  8.70109 -15.7302 1.90107
RightFoot  -12.7406 -0.107455 -1.74339
RightToes  4.71047e-010 1.2921e-014 -6.02303e-014
Spine  9.37144 2.17206 9.6698
Spine1  -1.19789 4.05069 -7.3804
HEad  -11.8537 67.1563 -19.9822
LeftShoulder1  0.932749 0.689606 -26.9979
LeftArm  14.5036 -6.97285 -13.9269
LeftForeArm  19.9979 -7.82307 -15.8812
LeftHand  -0.0136588 -1.21174 0.357918
RightShoulder  7.53342 10.2853 47.8499
RightArm  24.8154 -3.64152 15.1021
RightForeArm  8.59898 10.9946 13.8666
RightHand  0.253723 -0.733988 6.47802
LeftUpLeg  -26.3489 3.7779 0.292481
LeftLeg  31.5311 -4.42391 -2.58482
LeftFoot  -3.63059 0.748603 -10.7627
LeftToes  2.15783e-011 -7.56106e-012 -8.20802e-012
1079
root  -25.3786 39.6436 -38.4059 177.053 50.0418 173.616
RightUpLeg  0.0714146 -5.88659 2.45886
RightLeg  7.32281 -13.7051 2.52896
RightFoot  -12.9471 -0.115577 -1.99987
RightToes  4.71047e-010 1.2921e-014 -6.02303e-014
Spine  9.07105 2.39067 9.08146
Spine1  -0.530169 4.27434 -7.58604
HEad  -13.8136 67.3197 -21.1222
LeftShoulder1  0.781134 1.08249 -26.078
LeftArm  19.6096 0.00959979 -12.3679
LeftForeArm  17.5667 -10.5401 -14.6829
LeftHand  -0.0507991 -1.78087 0.983245
RightShoulder  7.47037 10.1207 48.0257
RightArm  24.1974 -3.68696 14.9037
RightForeArm  9.50143 10.739 13.9442
RightHand  0.303151 -0.323728 7.0301
LeftUpLeg  -26.3983 4.19303 -1.43309
LeftLeg  25.8965 -4.63696 -2.12039
LeftFoot  -3.36754 0.804584 -11.228
LeftToes  2.15783e-011 -7.56106e-012 -8.20802e-012
1080
root  -24.7557 39.5779 -38.695 177.062 51.8313 173.739
RightUpLeg  1.45803 -5.78163 2.7082
RightLeg  6.93549 -11.9262 2.81148
RightFoot  -13.6555 -0.128667 -1.79846
RightToes  4.71047e-010 1.2921e-014 -6.02303e-014
Spine  8.8791 2.64484 8.72573
Spine1  -0.133078 4.47314 -7.45915
HEad  -15.9141 67.478 -22.6101
LeftShoulder1  0.628583 1.46588 -24.5974
LeftArm  24.9988 6.74199 -10.9499
LeftForeArm  14.349 -13.768 -12.701
LeftHand  -0.0450119 -1.76704 0.88968
RightShoulder  7.38591 9.93347 48.1467
RightArm  24.5365 -4.00235 14.6913
RightForeArm  9.55809 10.547 14.0941
RightHand  0.271611 -0.528814 6.60214
LeftUpLeg  -26.4141 4.87169 -2.97533
LeftLeg  21.2197 -4.49647 -1.60272
LeftFoot  -3.32088 0.843198 -11.713
LeftToes  2.15783e-011 -7.56106e-012 -8.20802e-012
1081
root  -24.0981 39.537 -38.9961 176.756 53.1819 173.601
RightUpLeg  3.43318 -5.62067 2.78635
RightLeg  5.82762 -11.1113 3.0058
RightFoot  -14.4893 -0.134114 -1.3146
RightToes  4.71047e-010 1.2921e-014 -6.02303e-014
Spine  8.68503 2.87136 8.07524
Spine1  0.309 4.68183 -7.33597
HEad  -16.4756 67.6195 -22.9165
LeftShoulder1  0.483742 1.84798 -22.8804
LeftArm  28.9332 12.0354 -9.6018
LeftForeArm  12.4068 -15.7754 -11.1718
LeftHand  -0.061896 -2.32973 1.12481
RightShoulder  7.16035 9.44677 48.4357
RightArm  23.2055 -4.35595 14.3062
RightForeArm  10.1558 9.88553 14.3717
RightHand  0.242971 -0.882361 6.43771
LeftUpLeg  -25.8228 5.58312 -4.77791
LeftLeg  16.5752 -3.77917 -0.948035
LeftFoot  -2.32113 0.955007 -11.8987
LeftToes  2.15783e-011 -7.56106e-012 -8.20802e-012
